<svg width="20" height="20" viewBox="0 0 20 20" fill="none" xmlns="http://www.w3.org/2000/svg">
<path fill-rule="evenodd" clip-rule="evenodd" d="M14.8224 2.47112C14.4451 2.47112 13.9287 2.79405 13.6664 3.45065C13.6511 3.51326 13.6298 3.57501 13.6024 3.63508C13.5372 3.85391 13.4989 4.10396 13.4989 4.38554C13.4989 5.67152 14.2961 6.29996 14.8224 6.29996C15.3486 6.29996 16.1458 5.67152 16.1458 4.38554C16.1458 4.10413 16.1076 3.8542 16.0425 3.63546C16.0149 3.57515 15.9935 3.51313 15.9781 3.45025C15.7159 2.79392 15.1995 2.47112 14.8224 2.47112ZM17.9027 2.6926C17.3903 1.40063 16.298 0.389984 14.8224 0.389984C13.3468 0.389984 12.2546 1.40054 11.7421 2.69242C11.6126 2.86423 11.451 3.00972 11.2661 3.1207C11.0561 3.2467 10.821 3.32516 10.5774 3.35056C10.0058 3.41017 9.5908 3.92186 9.65041 4.49345C9.71002 5.06504 10.2217 5.48008 10.7933 5.42047C11.0357 5.39519 11.2742 5.34648 11.5058 5.27542C11.8329 6.9258 13.0516 8.38109 14.8224 8.38109C15.0458 8.38109 15.2605 8.35792 15.4656 8.31411C15.7851 8.76606 16.1458 9.63416 16.1458 11.182L16.1459 11.199L16.1462 11.2119C16.1755 12.2292 15.8002 13.2165 15.1027 13.9576C14.41 14.6936 13.4555 15.1271 12.446 15.1647C11.615 15.1533 10.8154 14.8447 10.1919 14.2945C9.79856 13.9473 9.20821 13.9473 8.81482 14.2945C8.19141 14.8447 7.39173 15.1533 6.56077 15.1647C5.55127 15.1271 4.59678 14.6936 3.90404 13.9576C3.20655 13.2165 2.83131 12.2292 2.86055 11.2119C2.86113 11.192 2.86113 11.172 2.86055 11.1521C2.83131 10.1348 3.20655 9.14746 3.90404 8.40638C4.59678 7.67034 5.55127 7.23689 6.56078 7.19927C7.39173 7.21069 8.19141 7.51925 8.81482 8.06946C9.24569 8.44974 9.90326 8.40873 10.2835 7.97785C10.6638 7.54698 10.6228 6.88941 10.1919 6.50913C9.18737 5.6225 7.89639 5.12849 6.55655 5.11798C6.54279 5.11787 6.52902 5.11804 6.51526 5.11848C4.94754 5.16843 3.46356 5.83785 2.38856 6.98005C1.32039 8.11498 0.742588 9.62469 0.779498 11.182C0.742587 12.7393 1.32039 14.249 2.38856 15.3839C2.62213 15.6321 2.87501 15.858 3.14386 16.06V18.5694C3.14386 19.1441 3.60974 19.61 4.18443 19.61C4.75912 19.61 5.225 19.1441 5.225 18.5694V17.061C5.64375 17.1689 6.07622 17.2315 6.51526 17.2455C6.52902 17.2459 6.54279 17.2461 6.55655 17.246C7.60703 17.2378 8.62746 16.9323 9.50338 16.3735C9.73789 16.5231 9.98276 16.6545 10.2358 16.767V18.5695C10.2358 19.1441 10.7017 19.61 11.2764 19.61C11.851 19.61 12.3169 19.1441 12.3169 18.5695V17.2434C12.3613 17.2448 12.4057 17.2457 12.4502 17.246C12.464 17.2461 12.4777 17.2459 12.4915 17.2455C12.7269 17.238 12.9603 17.2165 13.1908 17.1816V18.5695C13.1908 19.1441 13.6567 19.61 14.2314 19.61C14.806 19.61 15.2719 19.1441 15.2719 18.5695V16.4511C15.7658 16.1652 16.22 15.807 16.6182 15.3839C17.6897 14.2455 18.2678 12.7299 18.2269 11.1674C18.2247 9.3899 17.8191 8.09076 17.2356 7.21265C17.6864 6.67263 17.9968 5.99245 18.1389 5.27544C18.3705 5.34649 18.609 5.3952 18.8514 5.42047C19.423 5.48008 19.9347 5.06504 19.9943 4.49345C20.0539 3.92186 19.6388 3.41017 19.0672 3.35056C18.8237 3.32516 18.5886 3.2467 18.3786 3.1207C18.1937 3.00976 18.0322 2.86432 17.9027 2.6926Z" fill="black"/>
</svg>
